<svg version="1.2" xmlns="http://www.w3.org/2000/svg" viewBox="0 -1 842 596" width="906" height="641">
	<title>KHATWTNTK</title>
	<style>
		.s0 { fill: #ffa73f } 
		.s1 { fill: #0081af } 
		.s2 { fill: #1c8a8a } 
	</style>
	<g id="Layer 1">
		<g id="LOGO">
			<g id="&lt;Group&gt;">
				<path id="&lt;Path&gt;" class="s0" d="m427.3 242.5c1.1 1 2.2 1.8 3.3 2.7 0.7 0.6 1.4 1.2 2 1.8 3.3 3 3.3 4.9 0.3 8.2-1.6 1.8-1.4 3.5 0.7 5.9 3.9 4.7 9 8 14.2 11q2.4 1.4 4.8 2.6c0.5 0.2 0.9 0.4 0.8 1-0.1 0.7-0.6 0.6-1.1 0.6-4 0.2-7.9 1-11.9 0.6-1.9-0.2-3.9 0-5.8 0-2.1 0-3.7 0.7-4.6 2.7-0.9 1.9 0.3 3.3 1.3 4.7 1 1.5 2.1 2.9 3.4 4.1 4.1 3.8 4.2 8.6 3.3 13.6-0.7 4.1-1.5 8-2 12.1-0.5 5-0.2 10 3.2 14.3 2.3 1.2 4.6 3.2 7.4 2.8 3.9-0.6 7.9 0.4 11.8-0.3 16.1-1.5 32.2-1.8 48.4-0.1 8.7 1 17.3 2.7 25.6 5.4 1.3 0.4 1.9 0.1 2.7-0.7 9-9.1 16.7-19.2 22.9-30.3 4.2-7.5 7.7-15.3 10.4-23.5 3.8-11.2 6-22.7 6.8-34.5 0.7-10 0.3-19.9-1-29.7-1.1-7.7-2.8-15.4-5.3-22.8-3.9-11.9-9.3-23.1-16.2-33.6-9-13.6-20.1-25.2-33.1-35-4.2-3.2-8.6-6-13.1-8.7-1.8-0.9-3.8-1.5-5.3-3-4.8-3-8.8-2-12.5 0.2-9.1-0.5-20.3-2.7-23.9-10.4 0 0-0.1 17.9 12.9 22.2-1.6 3.6-4.3 6.5-6.4 9.7-5.3 7.9-8.6 16.7-10.3 26-1.5 8-1.5 16.2-2.2 24.3-0.6 6.5-1 13-4.2 19-2.2 4.1-5.5 6.9-9.6 9.2-6.6 3.8-13.2 7.6-18.4 13.3-5 5.4-4.7 9.8 0.7 14.6z"/>
				<path id="&lt;Compound Path&gt;" class="s1" d="m302.2 202.9q0 0.6 0 1.2v0.1l0.3-1.5q0 0 0 0-0.1 0.1-0.3 0.2z"/>
				<path id="&lt;Compound Path&gt;" class="s2" d="m415.1 334.8c-5.9-1.5-12.1-1.5-18-3.6-6.8-2.2-10.2-7.1-9.5-14.2 0.5-5.3 2.3-10.3 3.8-15.3 1.1-3.9 1-7.3-1.9-10.4-1.5-1.6-2.8-3.3-3.7-5.2-1.6-3-0.4-5.8 2.9-6.6 5.8-1.5 11.7-1.6 17.6-1.9 1.4-0.1 3.5 0.2 3.9-1.2 0.3-1.4-1.9-1.5-3-2.1-5.7-3.2-11.9-5.6-17.5-9.2-0.9-0.6-1.9-1.2-2.7-1.9-1.4-1.3-2.3-2.5-0.5-4.5 2.2-2.6 0.8-5.4-0.8-7.7-2.4-3.8-5.6-6.9-8.8-9.9-3.2-3.2-3.4-5.8-0.2-9.2 3.3-3.6 7.6-5.9 11.7-8.5 4.1-2.5 8.5-4.6 12.4-7.4 5.5-3.9 7.8-9.5 8.9-15.9 1.4-9 0.7-18.1 0.9-27.1 0.4-13.2 5.7-24.4 13.5-34.6 3.1-4.1 6.5-7.8 10.1-11.3 0.8-0.7 1.1-1.3 0.9-2.4-2.6-11.5 3.2-18.6 13-22.6 1.8-0.8 3.6-1.7 6.1-1.6-1.4-1-2.5-1.1-3.7-1.2-11.8-1-23.5-0.8-35.2 1-7.6 1.2-15.1 3-22.5 5.5q-18.6 6.3-34.9 17.5-18.3 12.7-31.7 30.5c-7 9.2-12.8 19.2-17.3 29.9q-3.9 9.3-6.4 19 0 0 0 0-0.1 0.7-0.3 1.4c-3.7 15.3-4.7 31-3.5 46.9 0.6 7.9 2.2 15.8 4.3 23.5q3.7 13.1 9.8 25.3c6.2 12.2 14 23.3 23.4 33.2q16.7 17.6 38.3 28.5c10.2 5.1 20.8 9.1 32 11.3 2 0.4 4 1.1 6 1.3 1.5 0.1 1.7 1.2 1.7 2.4q0.2 18.3 0.5 36.5c0.1 3.4 0.2 6.8 0.3 10.7 4.6-5.4 8.7-10.4 12.9-15.3 5.2-6 10.5-12 14.7-18.9 8.2-13.3 7.8-25.1-1.5-37.9-6.5-8.8-15.4-14-26-16.8zm-66-15.8c-0.5 0.8-1.5 1.3-2.5 1.3-0.8 0-1.6-0.2-2.3-0.7q-0.8-0.7-1.7-1.3c-0.9-0.7-1.9-1.5-2.8-2.3-5.7-4.8-10.4-10.6-14-17.2-2.7-4.9-4.6-10.3-5.8-15.8-0.8-3.8-1.2-7-1.2-10.1-0.1-2.6 0-5.3 0.3-9 0.2-3.3 0.9-6.9 2.2-11.1 1-3.2 2.3-6.3 3.8-9.3 2.6-5 5.1-8.9 8.2-12.3 0.8-0.9 1.9-1.8 3.2-1.9q0.8 0 1.6 0.5c0.9 0.6 1.4 1.4 1.5 2.4 0.2 1.1-0.3 2.2-1.1 3.2-2.2 2.5-4.2 5.3-6 8.3-1 1.8-1.9 3.5-2.6 5.2q-0.9 1.9-1.6 4c-1.1 3.2-1.9 6.4-2.4 9.4q-0.3 1.6-0.5 3.2c-0.2 1.8-0.1 3.7-0.1 5.6v0.8q0.1 1.1 0.1 2.3c0.1 1.5 0.3 2.9 0.5 4.2 0.3 2 0.7 4.1 1.4 6.4 0.9 3.5 2.3 6.8 4 10.1 2.9 5.5 6.2 10 10.2 13.7 1.7 1.6 3.7 3.2 5.5 4.6q0.7 0.6 1.4 1.1c1.5 1.3 1.8 3.2 0.7 4.7zm9-10.9c-0.6 0.8-1.4 1.2-2.4 1.2-0.8 0.1-1.6-0.2-2.4-0.7-3.4-2.3-6.6-5.1-9.3-8.3-3.6-4-6.3-8.7-8.2-13.7-1.2-3-2-6.1-2.4-9.2-0.5-3.2-0.6-6.6-0.4-10.2 0.2-4 1-8 2.4-12 1.6-4.3 3.6-8.2 6.3-11.7 1.2-1.7 2.6-3.2 4-4.8 0.7-0.7 1.5-1.1 2.5-1.2 0.9 0 1.8 0.4 2.4 1 1.3 1.4 1.2 3.4-0.3 4.9-4.9 5.3-8.2 11.4-9.8 18.2-0.6 2.7-1 5.6-1 8.5-0.1 3.5 0.5 6.9 1.2 9.7 0.5 2.6 1.5 5.3 2.9 8.1 1.3 2.6 2.9 5 4.7 7.3 2.5 3 5.5 5.7 9 8.1 0.8 0.5 1.3 1.3 1.5 2.2 0.1 0.9-0.1 1.8-0.7 2.6zm9.4-12c-0.5 1.5-1.6 2.5-3.1 2.5h-0.1c-1 0-1.4-0.2-3.1-1.2-5-3.3-8.8-7.7-11.4-13.1-1.6-3.1-2.5-6.5-3-10.1-0.4-4.1-0.1-8.2 1-12.2 0.8-3.2 2.1-6.2 3.9-8.9 1.7-2.6 3.6-4.9 5.8-6.7 0.5-0.5 1.2-0.7 2-0.7 1-0.1 1.9 0.3 2.5 0.9 1.3 1.4 1.2 3.4-0.3 4.9l-0.5 0.5c-0.7 0.7-1.4 1.4-2 2.1-3.8 4.6-5.8 9.9-5.9 15.8-0.1 3.4 0.5 6.7 1.8 9.9 1.5 4 3.9 7.3 7.1 10 0.9 0.7 1.9 1.4 2.9 2.1q0.4 0.2 0.8 0.5c1.3 0.9 1.9 2.4 1.6 3.7zm8.4-10c-0.5 1.2-1.7 2-3 2.1q-0.6 0-1.2-0.2c-0.5-0.2-1.1-0.4-1.7-0.8-6.3-3.6-9.7-9.1-10.1-16.4v-0.1q0-0.4 0-0.8c0.1-0.7 0.1-1.6 0.2-2.4 0.2-1.3 0.5-2.4 0.8-3.3 1.6-4.3 4.3-7.6 8.1-10 0.6-0.3 1.2-0.5 1.9-0.6 1.2 0 2.3 0.6 2.9 1.7 1 1.5 0.4 3.4-1.3 4.5-4.7 3-6.8 7.8-5.7 13.1 0.8 4.1 3.2 7.1 7.3 8.9 1.6 0.7 2.4 2.6 1.8 4.3z"/>
			</g>
		</g>
		<g id="TITLE">
			<path id="&lt;Compound Path&gt;" class="s0" d="m320.6 450.4c-4.4 12.2-6.7 19.4-9.8 24.9h5.7l-2.4 6.5h-8.6c-16.5 14-58.9 7.9-58.9-12.4 0-14.8 15.6-22.2 31.5-19.7-29.1 5.3-22 39.2 9.9 32.1-7.4-1.6-15.9-7.4-15.9-14 0-11.6 16.8-17.4 31.6-17.4zm-23.7 24.9c3.7-4.4 5.3-11.3 8.2-18.7-1.6 0-3.2 0.1-4.6 0.2-7.9 0.6-16.6 5-16.6 10.9 0 5.5 6.4 7.6 13 7.6zm-4.5-38.1c0.6-3.3 3.7-5.9 7-5.9 3.3 0 5.4 2.6 4.8 5.9-0.6 3.3-3.6 5.9-7 5.9-3.3 0-5.4-2.6-4.8-5.9zm13.8 0.1c0.5-3.3 3.6-5.9 6.9-5.9 3.3 0 5.4 2.6 4.8 5.9-0.5 3.2-3.6 5.9-6.9 5.9-3.3 0-5.4-2.7-4.8-5.9z"/>
			<path id="&lt;Compound Path&gt;" class="s0" d="m382.5 475.3l-2.3 6.5h-1.9c-3.7 0-5.6-0.9-7.3-3.5-3.8 2.2-8.6 3.5-14.2 3.5h-44.4l2.1-6.5 2.3-0.1 13.9-37.1h13.1l-7.3 19.7c9.9-5.6 16.5-9 25.3-9 19.8 0 23.1 16 13.9 25.8 1.4 0.7 4.1 0.7 5.3 0.7zm-24.8 0c13.7-0.4 15-18.4 1.1-18.4-8 0-17.5 5.6-25.8 10.8l-3.2 7.6z"/>
			<path id="&lt;Compound Path&gt;" class="s0" d="m398.4 450.4h13.5l-6.2 16.7c-5.1 12.8-9 14.7-25.7 14.7h-1.3l2.4-6.5h0.9c6.4 0 7.6-1.7 10.4-8.6zm4-11.8c0.6-3.3 3.6-5.9 7-5.9 3.3 0 5.4 2.6 4.8 5.9-0.6 3.2-3.6 5.9-7 5.9-3.3 0-5.4-2.7-4.8-5.9z"/>
			<path id="&lt;Compound Path&gt;" class="s2" d="m449.2 450.4c11.6-0.1 22 5 19.5 15.6-2.7 11.6-16.5 17.1-28.4 16.6-10.9-0.5-20.1-6.1-17.7-16.6 2.4-10.3 15.1-15.6 26.6-15.6zm-1.8 6.9c-6.1 0.1-12.7 3.1-14 8.7-1.3 6 3.5 9.2 9.1 9.4 6.3 0.4 13.7-2.8 15.4-9.4 1.5-6.1-4.2-9-10.5-8.7zm-8.6-20.1c0.6-3.3 3.7-5.9 7-5.9 3.3 0 5.4 2.6 4.8 5.9-0.6 3.3-3.6 5.9-7 5.9-3.3 0-5.4-2.6-4.8-5.9zm13.8 0.1c0.5-3.3 3.6-5.9 6.9-5.9 3.3 0 5.4 2.6 4.8 5.9-0.5 3.2-3.6 5.9-6.9 5.9-3.3 0-5.4-2.7-4.8-5.9z"/>
			<path id="&lt;Compound Path&gt;" class="s2" d="m526.4 475.3l-2.3 6.5h-1.9c-2.6 0-4.2-0.4-5.6-1.5-0.5 0.5-1.1 1-1.8 1.5-9.7 7.5-24.8 9.6-39.8 5.8 16.5-0.4 32.2-6.6 36.3-19.3 2.2-7-0.5-11-7.5-11.2-12.5-0.3-23.5 14.3-12.2 18.1 3.2 1.1 7.7 0.8 11.8-1.5-1.4 2.4-3.6 4.4-6 5.9-3.3 2-7.1 2.8-10.5 2.6-17.5-1.2-15-21 1.9-28.4 4.6-2 9.8-3.2 14.7-3.2 18.5-0.2 26.1 12.5 17.9 24.5 1.2 0.2 2.7 0.2 3.5 0.2z"/>
			<path id="&lt;Compound Path&gt;" class="s2" d="m592.8 475.3l-2.3 6.5h-1.9c-3.7 0-5.6-0.9-7.4-3.5-3.7 2.2-8.5 3.5-14.1 3.5h-44.4l2.1-6.5 2.3-0.1 13.8-37.1h13.2l-7.3 19.7c9.9-5.6 16.5-9 25.3-9 19.8 0 23.1 16 13.9 25.8 1.4 0.7 4 0.7 5.3 0.7zm-24.8 0c13.6-0.4 15-18.4 1.1-18.4-8 0-17.5 5.6-25.9 10.8l-3.1 7.6z"/>
			<path id="&lt;Compound Path&gt;" class="s2" d="m602.6 450h10.9c18.9 0 22.6 14.4 12.9 31.8h-37.4l2.1-6.5h27.2c4.2-10.6 4.5-16.8-9.7-16.8h-9.2zm3.7-12.8c0.5-3.3 3.6-5.9 6.9-5.9 3.3 0 5.4 2.6 4.8 5.9-0.5 3.3-3.6 5.9-6.9 5.9-3.3 0-5.4-2.6-4.8-5.9z"/>
		</g>
	</g>
</svg>